PathFileType	4	(X/Y/Z)	C:/Users/beibeiliu/ov580/test_trc/User3\sequence.50_training_dense_right.trc
DataRate	CameraRate	NumFrames	NumMarkers	Units	OrigDataRate	OrigDataStartFrame	OrigNumFrames
120	120	10	19	mm	120	1	92
Frame#	Time	ThumbCMC			ThumbMCP			ThumbIP			ThumbTip			IndexMCP			IndexPIP			IndexTip			MiddleMCP			MiddlePIP			MiddleTip			RingMCP			RingPIP			RingTip			PinkyMCP			PinkyPIP			PinkyTip			BackHand1			BackHand2			BackHand3	
		X0	Y0	Z0	X1	Y1	Z1	X2	Y2	Z2	X3	Y3	Z3	X4	Y4	Z4	X5	Y5	Z5	X6	Y6	Z6	X7	Y7	Z7	X8	Y8	Z8	X9	Y9	Z9	X10	Y10	Z10	X11	Y11	Z11	X12	Y12	Z12	X13	Y13	Z13	X14	Y14	Z14	X15	Y15	Z15	X16	Y16	Z16	X17	Y17	Z17	X18	Y18	Z18	
0	0	176.668	-5.19816	55.6339	177.563	20.5111	29.324	168.296	35.5199	3.46812	156.918	44.8487	-14.3047	163.713	-31.6624	-16.4029	161.821	-25.343	-46.6911	161.941	-17.9386	-68.1008	139.359	-45.0808	-17.4227	137.119	-39.0464	-45.9321	125.775	-29.8156	-75.4934	116.645	-34.0315	-7.11913	103.709	-15.9508	-26.4459	89.5813	10.7954	-32.7953	101.32	-26.4577	11.319	92.9785	-0.674804	7.05931	94.1343	22.5507	19.5682	136.032	-54.66	42.0373	143.651	-55.592	73.7267	169.283	-42.0365	51.9432	
1	0.00833333	178.561	-2.80331	50.0495	176.193	18.6971	31.4873	170.386	35.73	2.90042	164.994	50.1692	-12.519	165.377	-29.1657	-16.6579	167.857	-23.714	-46.2058	162.603	-18.2148	-70.8405	142.764	-41.6546	-17.1319	135.834	-36.5658	-49.2503	125.02	-29.9085	-76.8454	118.075	-30.1737	-8.56967	100.248	-15.6943	-20.6518	90.7836	15.0688	-27.5984	102.797	-26.7532	12.9156	93.1002	-0.254714	7.36355	99.2884	24.1138	17.5554	137.969	-53.2112	41.9887	145.185	-53.8147	73.2161	171.437	-41.543	48.2273	
2	0.0166667	182.727	-2.0887	55.2223	176.659	18.2058	29.4859	173.56	36.1869	3.65243	165.313	46.7001	-13.3665	168.042	-29.565	-16.7642	172.345	-23.546	-41.6316	167.431	-20.4943	-66.8993	143.629	-42.0124	-21.8371	137.292	-36.0882	-48.4275	123.618	-27.0719	-76.7845	117.888	-32.1286	-5.70921	105.616	-14.435	-19.8113	92.2585	14.3766	-22.5075	104.351	-30.1068	11.1369	93.7298	-7.23394	6.75972	95.9989	17.4878	12.1623	140.247	-55.0205	41.5464	145.564	-56.9807	71.632	173.052	-42.9521	50.5028	
3	0.025	184.489	-2.46538	53.024	180.346	18.6632	31.6423	172.774	33.3451	2.23094	163.757	45.3706	-15.2419	173.417	-31.7896	-13.498	174.736	-27.4946	-44.887	168.854	-25.4162	-67.8331	143.363	-44.4302	-18.3872	134.097	-33.7267	-47.6332	119.462	-16.1276	-69.1251	122.502	-34.8589	-7.54133	106.131	-15.3626	-21.7436	96.4728	11.7565	-23.3861	107.911	-37.9361	11.7547	95.3504	-19.2112	1.43883	93.6431	12.2392	4.27051	146.726	-57.1054	42.2496	149.128	-55.4176	75.3867	177.856	-41.7747	47.842	
4	0.0333333	185.241	-1.50294	53.1507	178.109	18.3422	31.7941	170.177	32.7973	3.91658	155.01	40.6657	-15.0133	173.271	-33.46	-15.2586	175.908	-28.6365	-41.7274	165.506	-21.8686	-66.2286	148.249	-36.9726	-15.6319	132.591	-17.3742	-42.7728	117.545	8.56887	-52.246	128.235	-38.4998	-3.10898	112.342	-19.1575	-25.7849	98.1208	7.37861	-29.3005	110.573	-45.1527	15.7056	95.0879	-30.5068	-6.57332	88.8083	-3.32367	-8.84305	148.06	-55.5672	46.8861	148.569	-58.124	76.7262	175.119	-42.9626	54.1804	
5	0.0416667	182.785	-0.0408084	54.1737	174.597	17.9886	32.9597	166.028	31.6217	9.27555	148.925	36.4864	-10.1566	174.047	-27.6415	-13.4658	166.686	-22.249	-43.4664	159.154	-1.32904	-64.4548	145.089	-33.6237	-14.2809	129.797	-12.9739	-37.0563	116.325	19.1441	-36.98	130.965	-40.3917	-6.2262	113.89	-29.2373	-26.8015	103.357	-2.09379	-33.2153	110.242	-48.9069	15.113	98.562	-43.4286	-4.75194	82.2608	-18.7616	-18.7094	143.595	-55.2508	46.0271	149.714	-55.0668	74.0728	174.503	-41.3852	51.3471	
6	0.05	181.467	-0.584562	57.5088	178.443	21.0327	34.8483	167.698	34.6171	6.84402	147.676	38.28	-9.48392	171.208	-22.4613	-13.5427	164.503	-6.24429	-41.5503	144.994	13.4675	-50.1903	149.669	-34.2679	-15.1252	133.624	-15.301	-38.1487	115.702	16.8593	-35.6664	131.021	-46.8542	-3.96391	116.497	-37.5512	-27.271	102.127	-13.0617	-37.0232	114.69	-48.8402	18.524	95.0849	-47.6963	-2.47602	80.1151	-30.8362	-20.1327	149.71	-54.3197	48.5779	153.914	-54.3042	76.2487	177.678	-39.0058	52.398	
7	0.0583333	184.952	0.463992	62.1888	181.058	20.9593	35.8388	171.241	34.7489	9.60524	151.819	39.0849	-9.9117	172.075	-18.5606	-14.0563	157.488	0.0986253	-38.2302	140.901	24.8955	-42.0807	150.449	-39.7114	-15.0538	137.943	-25.6909	-42.061	114.958	4.82543	-49.4964	130.977	-49.1593	-2.61623	116.693	-44.0625	-26.8919	105.645	-23.446	-42.8267	114.307	-48.7683	20.7664	98.0749	-48.681	1.8629	77.5919	-39.1212	-16.6735	150.916	-55.0903	44.6229	155.207	-55.4592	78.5722	181.495	-38.2752	55.2671	
8	0.0666667	183.859	-2.41035	57.6377	185.057	20.0745	36.6767	177.315	33.3237	12.2966	162.725	42.8924	-8.12393	170.766	-20.814	-14.6104	162.656	-3.82633	-39.6901	146.541	16.8488	-46.6345	151.978	-44.4845	-12.3491	141.191	-35.9776	-44.6681	128.073	-17.7484	-63.5173	133.308	-47.7462	1.06072	119.143	-44.8164	-24.0163	101.293	-26.5777	-45.3029	110.735	-47.8233	19.8516	95.7026	-43.4998	0.87637	75.9117	-36.0267	-10.9684	146.982	-57.1876	47.5595	151.268	-56.5497	76.7325	178.04	-39.8995	56.9214	
9	0.075	190.561	-4.0883	62.1125	190.195	17.698	36.8763	187.035	32.2649	12.7725	175.655	43.2576	-9.51887	171.591	-28.1227	-13.102	171.517	-15.6252	-38.4909	156.002	5.22979	-57.17	154.136	-45.0157	-14.1507	143.762	-40.5674	-43.3162	134.676	-28.8282	-68.2556	128.781	-43.7996	1.86757	115.44	-35.8086	-21.8797	100.123	-15.2316	-39.3335	106.619	-43.2017	21.7031	93.0287	-35.7212	3.83919	78.5671	-24.4911	-11.8985	149.286	-52.2386	50.0375	149.756	-55.2076	76.8016	177.135	-43.9233	58.5141	
